<?xml version="1.0" encoding="utf-8"?>
<!-- Generator: Adobe Illustrator 15.0.0, SVG Export Plug-In . SVG Version: 6.00 Build 0)  -->
<!DOCTYPE svg PUBLIC "-//W3C//DTD SVG 1.1//EN" "http://www.w3.org/Graphics/SVG/1.1/DTD/svg11.dtd">
<svg version="1.1" id="Calque_1" xmlns="http://www.w3.org/2000/svg" xmlns:xlink="http://www.w3.org/1999/xlink" x="0px" y="0px"
	 width="220px" height="51px" viewBox="0 0 220 51" enable-background="new 0 0 220 51" xml:space="preserve">
<g>
	<path d="M21.673,37.477c0,2.282-0.678,4.071-2.033,5.369c-1.356,1.298-3.183,1.946-5.48,1.946H2.331V5.984h11.828
		c2.298,0,4.125,0.657,5.48,1.971c1.355,1.314,2.033,3.112,2.033,5.394V37.477z M15.846,36.51V14.217
		c0-2.166-1.133-3.249-3.397-3.249H8.133v28.839h4.166C14.664,39.808,15.846,38.708,15.846,36.51z"/>
	<path d="M42.056,41.692c0,2.066-1.066,3.1-3.199,3.1h-9.795c-2.133,0-3.199-1.033-3.199-3.1V22.846c0-2.066,1.066-3.1,3.199-3.1
		h9.795c2.132,0,3.199,1.033,3.199,3.1v9.2l-1.563,1.562h-9.2v7.018h5.332V36.46h5.431V41.692z M36.625,29.914v-6.001h-5.332v6.001
		H36.625z"/>
	<path d="M63.134,19.747l-6.397,25.095h-5.431l-6.398-25.095h5.828l3.298,16.465l3.298-16.465H63.134z"/>
	<path d="M82.451,41.692c0,2.066-1.05,3.1-3.149,3.1H69.135c-2.133,0-3.199-1.033-3.199-3.1V22.846c0-2.066,1.066-3.1,3.199-3.1
		h10.167c2.1,0,3.149,1.033,3.149,3.1V41.692z M76.896,40.081V24.483h-5.381v15.598H76.896z"/>
	<path d="M103.306,44.792h-6.15l-3-7.861l-3.1,7.861h-6.05v-0.1l6.05-12.795l-5.48-12.151h5.852l2.728,7.266l2.852-7.266h5.728
		v0.099l-5.48,12.002L103.306,44.792z"/>
	<path d="M122.599,44.792h-6.15l-3-7.861l-3.1,7.861h-6.05v-0.1l6.05-12.795l-5.48-12.151h5.852l2.728,7.266l2.852-7.266h5.728
		v0.099l-5.479,12.002L122.599,44.792z"/>
	<path d="M152.132,44.792h-2.38L139.386,16.25v28.542h-3.248V5.984h2.579l10.167,28.045V5.984h3.248V44.792z"/>
	<path d="M171.424,41.99c0,1.869-0.926,2.802-2.777,2.802h-7.935c-1.852,0-2.777-0.934-2.777-2.802V23.466
		c0-1.868,0.926-2.802,2.777-2.802h7.935c1.852,0,2.777,0.934,2.777,2.802v8.679l-1.115,1.166h-9.176v8.729h7.093v-4.414h3.198
		V41.99z M168.226,30.682v-7.266h-7.093v7.266H168.226z"/>
	<path d="M198.453,20.664l-4.984,24.178h-2.95l-3.546-18.326l-3.547,18.326h-2.901l-4.983-24.178h3.1l3.396,18.598l3.521-18.598
		h2.877l3.521,18.598l3.397-18.598H198.453z"/>
	<path d="M215.514,41.99c0,1.869-0.934,2.802-2.802,2.802h-7.563c-1.868,0-2.802-0.934-2.802-2.802v-5.48h3.248v5.431h6.671v-4.811
		l-8.63-7.067c-0.826-0.661-1.239-1.521-1.239-2.579v-4.017c0-1.868,0.934-2.802,2.802-2.802h7.464c1.868,0,2.803,0.934,2.803,2.802
		v4.811h-3.199v-4.761h-6.671v4.216l8.704,7.067c0.81,0.645,1.215,1.521,1.215,2.628V41.99z"/>
</g>
</svg>
